<svg width="48" height="31" viewBox="0 0 48 31" fill="none" xmlns="http://www.w3.org/2000/svg">
<rect x="0.112556" y="0.112068" width="46.8384" height="30.2545" rx="5.49062" fill="white"/>
<rect x="0.112556" y="0.112068" width="46.8384" height="30.2545" rx="5.49062" stroke="#D6DCE5" stroke-width="0.224107"/>
<path d="M15.3009 11.3058C15.6119 10.9168 15.8229 10.3946 15.7673 9.86084C15.312 9.88348 14.7565 10.1612 14.4348 10.5505C14.146 10.8838 13.8904 11.428 13.9571 11.9393C14.4681 11.9837 14.9787 11.6839 15.3009 11.3058Z" fill="#000008"/>
<path d="M15.7615 12.0392C15.0193 11.995 14.3883 12.4604 14.0339 12.4604C13.6793 12.4604 13.1366 12.0615 12.5495 12.0722C11.7855 12.0834 11.0766 12.5154 10.6889 13.2025C9.89145 14.5769 10.4784 16.6157 11.2539 17.7351C11.6305 18.289 12.0844 18.8987 12.6824 18.8768C13.2474 18.8547 13.4689 18.511 14.1557 18.511C14.842 18.511 15.0415 18.8768 15.6396 18.8658C16.2599 18.8547 16.6477 18.3117 17.0243 17.7573C17.4563 17.126 17.6331 16.5164 17.6443 16.483C17.6331 16.4719 16.4482 16.0173 16.4372 14.6543C16.426 13.513 17.3675 12.9701 17.4118 12.9365C16.8802 12.1501 16.0495 12.0615 15.7615 12.0392Z" fill="#000008"/>
<path d="M22.2235 10.4946C23.8366 10.4946 24.9598 11.6065 24.9598 13.2254C24.9598 14.85 23.8135 15.9677 22.1831 15.9677H20.3971V18.8078H19.1068V10.4946L22.2235 10.4946ZM20.3971 14.8845H21.8777C23.0012 14.8845 23.6406 14.2797 23.6406 13.2312C23.6406 12.1827 23.0012 11.5835 21.8835 11.5835H20.3971V14.8845Z" fill="#000008"/>
<path d="M25.2969 17.0853C25.2969 16.0252 26.1092 15.3743 27.5496 15.2936L29.2087 15.1957V14.7291C29.2087 14.055 28.7535 13.6517 27.9932 13.6517C27.2729 13.6517 26.8235 13.9973 26.7142 14.5389H25.539C25.6081 13.4443 26.5413 12.6377 28.0392 12.6377C29.5083 12.6377 30.4472 13.4155 30.4472 14.6311V18.8078H29.2547V17.8112H29.226C28.8746 18.4852 28.1083 18.9115 27.3134 18.9115C26.1266 18.9115 25.2969 18.1741 25.2969 17.0853ZM29.2087 16.538V16.0599L27.7165 16.152C26.9733 16.2039 26.5528 16.5323 26.5528 17.0508C26.5528 17.5807 26.9907 17.9264 27.659 17.9264C28.5288 17.9264 29.2087 17.3272 29.2087 16.538Z" fill="#000008"/>
<path d="M31.5731 21.0374V20.0292C31.6651 20.0522 31.8725 20.0522 31.9763 20.0522C32.5523 20.0522 32.8635 19.8103 33.0535 19.1881C33.0535 19.1765 33.1631 18.8194 33.1631 18.8136L30.974 12.7472H32.3219L33.8545 17.6787H33.8774L35.41 12.7472H36.7234L34.4534 19.1246C33.9352 20.5938 33.336 21.0662 32.0801 21.0662C31.9763 21.0662 31.6651 21.0546 31.5731 21.0374Z" fill="#000008"/>
</svg>
