<svg width="48" height="31" viewBox="0 0 48 31" fill="none" xmlns="http://www.w3.org/2000/svg">
<rect x="0.112556" y="0.112068" width="46.8384" height="30.2545" rx="5.49062" fill="white"/>
<rect x="0.112556" y="0.112068" width="46.8384" height="30.2545" rx="5.49062" stroke="#D6DCE5" stroke-width="0.224107"/>
<path d="M22.519 18.8384H21.4706V10.6802H24.25C24.9545 10.6802 25.5551 10.915 26.0466 11.3846C26.549 11.8542 26.8002 12.4276 26.8002 13.1047C26.8002 13.7982 26.549 14.3716 26.0466 14.8357C25.5606 15.2999 24.9599 15.5293 24.25 15.5293H22.519V18.8384ZM22.519 11.6849V14.5299H24.2719C24.6869 14.5299 25.0364 14.388 25.3094 14.1095C25.5879 13.831 25.7299 13.4924 25.7299 13.1102C25.7299 12.7334 25.5879 12.4003 25.3094 12.1218C25.0364 11.8324 24.6924 11.6904 24.2719 11.6904H22.519V11.6849Z" fill="#3C4043"/>
<path d="M29.5413 13.0719C30.3167 13.0719 30.9283 13.2795 31.3761 13.6945C31.8239 14.1095 32.0477 14.6774 32.0477 15.3982V18.8384H31.0485V18.063H31.0048C30.5734 18.7019 29.9945 19.0186 29.2737 19.0186C28.6567 19.0186 28.1434 18.8384 27.7284 18.4726C27.3134 18.1067 27.1059 17.6535 27.1059 17.1074C27.1059 16.5286 27.3243 16.0699 27.7611 15.7313C28.198 15.3873 28.7823 15.218 29.5085 15.218C30.1311 15.218 30.6444 15.3327 31.043 15.562V15.3217C31.043 14.9559 30.901 14.6501 30.6116 14.3934C30.3222 14.1368 29.9836 14.0112 29.5959 14.0112C29.0116 14.0112 28.5475 14.2569 28.2089 14.7538L27.2861 14.175C27.7939 13.4378 28.5475 13.0719 29.5413 13.0719ZM28.1871 17.1238C28.1871 17.3968 28.3017 17.6262 28.5366 17.8064C28.7659 17.9866 29.0389 18.0794 29.3502 18.0794C29.7925 18.0794 30.1857 17.9156 30.5297 17.5879C30.8737 17.2603 31.0485 16.878 31.0485 16.4357C30.7208 16.1791 30.2676 16.048 29.6833 16.048C29.2574 16.048 28.9024 16.1518 28.6185 16.3538C28.329 16.5668 28.1871 16.8234 28.1871 17.1238Z" fill="#3C4043"/>
<path d="M37.7487 13.2522L34.2539 21.2903H33.1727L34.4723 18.4781L32.1679 13.2522H33.3092L34.9693 17.2603H34.9911L36.6074 13.2522H37.7487Z" fill="#3C4043"/>
<path d="M18.3487 14.8685C18.3487 14.5267 18.3181 14.1996 18.2613 13.885H13.8666V15.6871L16.3976 15.6876C16.2949 16.2872 15.9645 16.7983 15.4583 17.1391V18.3082H16.9649C17.8446 17.494 18.3487 16.2905 18.3487 14.8685Z" fill="#4285F4"/>
<path d="M15.4589 17.1391C15.0395 17.422 14.4994 17.5874 13.8676 17.5874C12.6472 17.5874 11.6118 16.7651 11.2411 15.6565H9.68696V16.8623C10.4569 18.3902 12.0394 19.4386 13.8676 19.4386C15.1312 19.4386 16.1928 19.0231 16.9655 18.3077L15.4589 17.1391Z" fill="#34A853"/>
<path d="M11.0947 14.762C11.0947 14.4508 11.1465 14.1499 11.241 13.867V12.6613H9.68692C9.36856 13.2931 9.18945 14.0063 9.18945 14.762C9.18945 15.5178 9.36911 16.2309 9.68692 16.8627L11.241 15.657C11.1465 15.3742 11.0947 15.0733 11.0947 14.762Z" fill="#FABB05"/>
<path d="M13.8676 11.9361C14.5573 11.9361 15.1749 12.1737 15.6626 12.6378L16.9977 11.3038C16.1868 10.5486 15.1296 10.085 13.8676 10.085C12.04 10.085 10.4569 11.1334 9.68692 12.6613L11.241 13.867C11.6118 12.7585 12.6472 11.9361 13.8676 11.9361Z" fill="#E94235"/>
</svg>
