<svg width="48" height="31" viewBox="0 0 48 31" fill="none" xmlns="http://www.w3.org/2000/svg">
<rect x="0.112556" y="0.112068" width="46.8384" height="30.2545" rx="5.49062" fill="white"/>
<rect x="0.112556" y="0.112068" width="46.8384" height="30.2545" rx="5.49062" stroke="#D6DCE5" stroke-width="0.224107"/>
<path d="M26.8804 9.07251H20.0171V21.406H26.8804V9.07251Z" fill="#FF5F00"/>
<path d="M20.4529 15.2393C20.4518 14.0515 20.721 12.879 21.24 11.8106C21.7591 10.7422 22.5144 9.80585 23.4488 9.0725C22.2917 8.16299 20.902 7.59737 19.4386 7.44031C17.9753 7.28324 16.4972 7.54106 15.1734 8.1843C13.8497 8.82754 12.7336 9.83026 11.9527 11.0778C11.1719 12.3254 10.7578 13.7675 10.7578 15.2393C10.7578 16.711 11.1719 18.1531 11.9527 19.4007C12.7336 20.6483 13.8497 21.651 15.1734 22.2942C16.4972 22.9375 17.9753 23.1953 19.4386 23.0382C20.902 22.8811 22.2917 22.3155 23.4488 21.406C22.5144 20.6727 21.7591 19.7363 21.2401 18.6679C20.721 17.5995 20.4518 16.4271 20.4529 15.2393Z" fill="#EB001B"/>
<path d="M36.1393 15.2393C36.1394 16.711 35.7254 18.1531 34.9446 19.4007C34.1638 20.6482 33.0477 21.6509 31.724 22.2942C30.4002 22.9374 28.9222 23.1953 27.4588 23.0382C25.9955 22.8811 24.6059 22.3155 23.4488 21.406C24.3823 20.6719 25.1371 19.7355 25.656 18.6672C26.175 17.599 26.4446 16.4269 26.4446 15.2393C26.4446 14.0516 26.175 12.8795 25.656 11.8113C25.1371 10.7431 24.3823 9.80659 23.4488 9.0725C24.6059 8.16298 25.9955 7.59737 27.4588 7.4403C28.9222 7.28324 30.4002 7.54107 31.724 8.18432C33.0477 8.82757 34.1638 9.83028 34.9446 11.0779C35.7254 12.3254 36.1394 13.7675 36.1393 15.2393Z" fill="#F79E1B"/>
<path d="M35.391 20.0997V19.8472H35.4928V19.7958H35.2335V19.8472H35.3354V20.0997H35.391ZM35.8944 20.0997V19.7953H35.8149L35.7235 20.0047L35.6321 19.7953H35.5526V20.0997H35.6087V19.8701L35.6944 20.0681H35.7526L35.8383 19.8696V20.0997H35.8944Z" fill="#F79E1B"/>
</svg>
