<svg width="48" height="31" viewBox="0 0 48 31" fill="none" xmlns="http://www.w3.org/2000/svg">
<rect x="0.112556" y="0.112068" width="46.8384" height="30.2545" rx="5.49062" fill="white"/>
<rect x="0.112556" y="0.112068" width="46.8384" height="30.2545" rx="5.49062" stroke="#D6DCE5" stroke-width="0.224107"/>
<path fill-rule="evenodd" clip-rule="evenodd" d="M10.4217 10.8701H7.73417C7.55026 10.8701 7.39385 11.0038 7.36517 11.1852L6.27821 18.076C6.25661 18.212 6.36192 18.3345 6.49985 18.3345H7.78289C7.9668 18.3345 8.12321 18.2009 8.15189 18.0191L8.44506 16.1605C8.47333 15.9785 8.63013 15.8451 8.81366 15.8451H9.66442C11.4348 15.8451 12.4564 14.9884 12.7234 13.291C12.8436 12.5484 12.7285 11.9649 12.3806 11.5562C11.9987 11.1076 11.3211 10.8701 10.4217 10.8701ZM10.7317 13.3869C10.5848 14.3511 9.84795 14.3511 9.1355 14.3511H8.72995L9.01446 12.5503C9.03135 12.4415 9.12566 12.3613 9.2357 12.3613H9.42157C9.90689 12.3613 10.3647 12.3613 10.6013 12.6379C10.7423 12.803 10.7856 13.0481 10.7317 13.3869ZM18.4552 13.356H17.1683C17.0586 13.356 16.9639 13.4361 16.9469 13.5451L16.89 13.9049L16.8 13.7745C16.5214 13.3701 15.9002 13.235 15.2801 13.235C13.8578 13.235 12.6432 14.312 12.4066 15.8229C12.2837 16.5764 12.4584 17.297 12.886 17.7996C13.2782 18.2616 13.8394 18.4542 14.507 18.4542C15.6529 18.4542 16.2885 17.7174 16.2885 17.7174L16.231 18.0751C16.2093 18.2118 16.3146 18.3344 16.4518 18.3344H17.6111C17.7955 18.3344 17.951 18.2007 17.9801 18.0189L18.6757 13.6145C18.6977 13.4791 18.5927 13.356 18.4552 13.356ZM16.6613 15.8605C16.537 16.5957 15.9535 17.0892 15.2093 17.0892C14.8356 17.0892 14.5368 16.9693 14.3452 16.7422C14.1549 16.5168 14.0826 16.1956 14.1431 15.8382C14.2591 15.1092 14.8525 14.5997 15.5854 14.5997C15.9508 14.5997 16.2479 14.721 16.4436 14.9501C16.6396 15.1816 16.7174 15.5045 16.6613 15.8605ZM24.0162 13.3558H25.3095C25.4906 13.3558 25.5963 13.5589 25.4934 13.7074L21.192 19.9156C21.1223 20.0161 21.0076 20.0759 20.885 20.0759H19.5933C19.4114 20.0759 19.3052 19.8712 19.4105 19.7223L20.7499 17.832L19.3254 13.652C19.2761 13.5067 19.3834 13.3558 19.538 13.3558H20.8088C20.9739 13.3558 21.1196 13.4641 21.1672 13.6222L21.9232 16.1467L23.707 13.5196C23.7768 13.417 23.8929 13.3558 24.0162 13.3558Z" fill="#253B80"/>
<path fill-rule="evenodd" clip-rule="evenodd" d="M38.0387 18.0754L39.1417 11.0586C39.1586 10.9497 39.253 10.8695 39.3626 10.8691H40.6043C40.7414 10.8691 40.8467 10.9921 40.8251 11.1281L39.7374 18.0184C39.709 18.2003 39.5526 18.3339 39.3684 18.3339H38.2595C38.1224 18.3339 38.0171 18.2114 38.0387 18.0754ZM29.5918 10.8695H26.9038C26.7203 10.8695 26.5639 11.0031 26.5352 11.1846L25.4482 18.0754C25.4266 18.2114 25.5319 18.3339 25.6692 18.3339H27.0484C27.1766 18.3339 27.2862 18.2405 27.3062 18.1132L27.6147 16.1599C27.643 15.9779 27.7998 15.8445 27.9833 15.8445H28.8336C30.6043 15.8445 31.6258 14.9878 31.893 13.2904C32.0135 12.5478 31.8977 11.9643 31.55 11.5556C31.1683 11.107 30.4912 10.8695 29.5918 10.8695ZM29.9018 13.3863C29.7553 14.3505 29.0184 14.3505 28.3055 14.3505H27.9004L28.1853 12.5496C28.2022 12.4409 28.2957 12.3607 28.4061 12.3607H28.5919C29.0769 12.3607 29.5352 12.3607 29.7716 12.6373C29.9128 12.8024 29.9557 13.0475 29.9018 13.3863ZM37.6246 13.3553H36.3386C36.228 13.3553 36.1342 13.4355 36.1176 13.5444L36.0607 13.9043L35.9703 13.7739C35.6917 13.3695 35.0709 13.2344 34.4507 13.2344C33.0285 13.2344 31.8142 14.3114 31.5776 15.8223C31.4551 16.5758 31.6291 17.2964 32.0566 17.799C32.4496 18.261 33.0101 18.4536 33.6777 18.4536C34.8235 18.4536 35.4589 17.7168 35.4589 17.7168L35.4016 18.0744C35.38 18.2112 35.4853 18.3337 35.6233 18.3337H36.7821C36.9656 18.3337 37.122 18.2001 37.1507 18.0183L37.8467 13.6139C37.868 13.4784 37.7627 13.3553 37.6246 13.3553ZM35.8308 15.8599C35.7073 16.5951 35.1231 17.0885 34.3787 17.0885C34.0057 17.0885 33.7064 16.9687 33.5146 16.7416C33.3243 16.5161 33.2529 16.195 33.3127 15.8375C33.4293 15.1086 34.0219 14.5991 34.7548 14.5991C35.1203 14.5991 35.4173 14.7204 35.6131 14.9495C35.8099 15.1809 35.8877 15.5039 35.8308 15.8599Z" fill="#179BD7"/>
</svg>
