<svg width="159" height="24" viewBox="0 0 159 24" fill="none" xmlns="http://www.w3.org/2000/svg">
<path d="M11.3871 23.8934C3.65378 23.8667 0.000442713 21.4667 0.187109 15.6534H6.82711C6.90711 17.1734 8.18711 18.1067 11.3871 18.1334C14.2138 18.1601 15.5204 17.3601 15.5204 16.3201C15.5204 15.6001 15.1204 14.8534 12.9338 14.5334L10.0538 14.0801C5.81378 13.3867 0.720443 12.8801 0.720443 7.14673C0.720443 2.72006 4.32044 6.10352e-05 11.4404 6.10352e-05C17.8671 6.10352e-05 22.3471 1.78673 22.2138 8.18673H15.6271C15.3604 6.6934 14.1071 5.76006 11.2804 5.76006C8.82711 5.76006 7.81378 6.50673 7.81378 7.52006C7.81378 8.16006 8.21378 8.93339 9.92044 9.20006L12.2938 9.60006C16.7471 10.3467 22.8538 10.4801 22.8538 16.6134C22.8538 21.4934 19.0671 23.9201 11.3871 23.8934ZM40.3317 0.746729H47.7184V23.1467H40.3317V15.0401H31.6384V23.1467H24.2517V0.746729H31.6384V8.85339H40.3317V0.746729ZM61.8888 23.8934C54.1821 23.8934 49.1954 19.1201 49.1954 11.9467C49.1954 4.7734 54.1821 6.10352e-05 61.8888 6.10352e-05C69.5954 6.10352e-05 74.5821 4.7734 74.5821 11.9467C74.5821 19.1201 69.5954 23.8934 61.8888 23.8934ZM61.8888 17.5201C64.8221 17.5201 67.2488 15.4934 67.2488 11.9467C67.2488 8.40006 64.8221 6.37339 61.8888 6.37339C58.9554 6.37339 56.5288 8.40006 56.5288 11.9467C56.5288 15.4934 58.9554 17.5201 61.8888 17.5201ZM76.0642 23.1467V0.746729H88.7842C94.8909 0.746729 98.5175 3.46673 98.5175 9.49339C98.5175 15.5201 94.8909 18.2401 88.8109 18.2401H83.4509V23.1467H76.0642ZM83.4509 12.1067H88.1442C89.9309 12.1067 91.0775 11.2267 91.0775 9.49339C91.0775 7.76006 89.9309 6.88006 88.1709 6.88006H83.4509V12.1067ZM102.213 23.5734C100.213 23.5734 98.5329 21.9201 98.5329 19.9467C98.5329 17.9734 100.213 16.3201 102.213 16.3201C104.213 16.3201 105.893 17.9734 105.893 19.9467C105.893 21.9201 104.213 23.5734 102.213 23.5734ZM119.938 23.8934C112.392 23.8934 107.352 19.1201 107.352 11.9467C107.352 4.7734 112.392 6.10352e-05 119.938 6.10352e-05C125.405 6.10352e-05 131.005 2.40006 131.752 9.97339H124.712C124.098 7.52006 122.365 6.37339 119.938 6.37339C117.005 6.37339 114.685 8.56006 114.685 11.9467C114.685 15.3334 117.005 17.5201 119.938 17.5201C122.365 17.5201 124.098 16.3734 124.712 13.8667H131.752C131.005 21.4934 125.458 23.8934 119.938 23.8934ZM145.795 23.8934C138.088 23.8934 133.102 19.1201 133.102 11.9467C133.102 4.7734 138.088 6.10352e-05 145.795 6.10352e-05C153.502 6.10352e-05 158.488 4.7734 158.488 11.9467C158.488 19.1201 153.502 23.8934 145.795 23.8934ZM145.795 17.5201C148.728 17.5201 151.155 15.4934 151.155 11.9467C151.155 8.40006 148.728 6.37339 145.795 6.37339C142.862 6.37339 140.435 8.40006 140.435 11.9467C140.435 15.4934 142.862 17.5201 145.795 17.5201Z" fill="black"/>
</svg>
