<svg width="48" height="31" viewBox="0 0 48 31" fill="none" xmlns="http://www.w3.org/2000/svg">
<rect x="0.112556" y="0.112068" width="46.8384" height="30.2545" rx="5.49062" fill="white"/>
<rect x="0.112556" y="0.112068" width="46.8384" height="30.2545" rx="5.49062" stroke="#D6DCE5" stroke-width="0.224107"/>
<path d="M23.2459 10.3451L21.0716 20.5087H18.4425L20.6171 10.3451H23.2459ZM34.3076 16.9078L35.6917 13.091L36.4882 16.9078H34.3076ZM37.241 20.5087H39.6729L37.5507 10.3451H35.3061C34.8017 10.3451 34.3761 10.6385 34.1866 11.0908L30.2421 20.5087H33.0031L33.5513 18.991H36.9244L37.241 20.5087ZM30.3792 17.1902C30.3904 14.5077 26.6695 14.36 26.6953 13.1618C26.703 12.7967 27.0507 12.4093 27.8102 12.3099C28.1876 12.2607 29.225 12.2231 30.403 12.7651L30.8643 10.6099C30.2315 10.3802 29.4173 10.1592 28.4047 10.1592C25.8061 10.1592 23.9771 11.5408 23.9616 13.5192C23.9452 14.9822 25.2673 15.7986 26.2636 16.285C27.2878 16.7833 27.632 17.1024 27.6275 17.5479C27.6208 18.2302 26.8104 18.5306 26.0545 18.5425C24.7324 18.5634 23.9652 18.1858 23.3536 17.9008L22.8772 20.1278C23.4913 20.4099 24.6252 20.655 25.8016 20.6676C28.5633 20.6676 30.3702 19.303 30.3792 17.1902ZM19.489 10.3451L15.2292 20.5087H12.4496L10.3535 12.3974C10.2261 11.8979 10.1155 11.7152 9.72849 11.5045C9.09702 11.1619 8.05317 10.8399 7.13477 10.6404L7.19749 10.3451H11.6711C12.2411 10.3451 12.7542 10.7247 12.8835 11.3813L13.9908 17.2629L16.7267 10.3451H19.489Z" fill="#1434CB"/>
</svg>
