<svg width="24" height="24" viewBox="0 0 24 24" fill="none" xmlns="http://www.w3.org/2000/svg">
<g clip-path="url(#clip0_420_3984)">
<path d="M18.6296 5.37087C18.8405 5.58185 18.9591 5.868 18.9591 6.16637C18.9591 6.46474 18.8405 6.75089 18.6296 6.96186L13.5914 12L18.6296 17.0381C18.8405 17.2491 18.9591 17.5353 18.9591 17.8336C18.9591 18.132 18.8405 18.4181 18.6296 18.6291C18.4186 18.8401 18.1324 18.9586 17.8341 18.9586C17.5357 18.9586 17.2496 18.8401 17.0386 18.6291L12.0004 13.591L6.9623 18.6291C6.75133 18.8401 6.46518 18.9586 6.16681 18.9586C5.86844 18.9586 5.58229 18.8401 5.37131 18.6291C5.16034 18.4181 5.04181 18.132 5.04181 17.8336C5.04181 17.5353 5.16034 17.2491 5.37131 17.0381L10.4094 12L5.37131 6.96186C5.16034 6.75089 5.04181 6.46474 5.04181 6.16637C5.04181 5.868 5.16034 5.58185 5.37131 5.37087C5.58229 5.1599 5.86844 5.04137 6.16681 5.04137C6.46518 5.04137 6.75133 5.1599 6.9623 5.37087L12.0004 10.409L17.0386 5.37087C17.2496 5.1599 17.5357 5.04137 17.8341 5.04137C18.1324 5.04137 18.4186 5.1599 18.6296 5.37087Z" fill="black"/>
</g>
<defs>
<clipPath id="clip0_420_3984">
<rect width="24" height="24" fill="white"/>
</clipPath>
</defs>
</svg>
