<svg width="24" height="24" viewBox="0 0 24 24" fill="none" xmlns="http://www.w3.org/2000/svg">
<path d="M21.7963 20.2042L17.3441 15.7501C18.679 14.0106 19.3023 11.8284 19.0874 9.64619C18.8725 7.46401 17.8356 5.44527 16.1871 3.99948C14.5385 2.55369 12.4018 1.7891 10.2102 1.86083C8.01865 1.93255 5.93644 2.83521 4.38595 4.3857C2.83546 5.9362 1.9328 8.01841 1.86107 10.21C1.78935 12.4015 2.55393 14.5383 3.99972 16.1868C5.44552 17.8354 7.46426 18.8723 9.64643 19.0871C11.8286 19.302 14.0108 18.6788 15.7504 17.3439L20.2063 21.8007C20.3109 21.9054 20.4352 21.9884 20.5719 22.045C20.7086 22.1017 20.8552 22.1308 21.0032 22.1308C21.1512 22.1308 21.2977 22.1017 21.4344 22.045C21.5712 21.9884 21.6954 21.9054 21.8 21.8007C21.9047 21.6961 21.9877 21.5719 22.0443 21.4351C22.101 21.2984 22.1301 21.1519 22.1301 21.0039C22.1301 20.8559 22.101 20.7093 22.0443 20.5726C21.9877 20.4359 21.9047 20.3116 21.8 20.207L21.7963 20.2042ZM4.12536 10.5001C4.12536 9.23926 4.49925 8.00672 5.19974 6.95836C5.90024 5.90999 6.89587 5.09289 8.06075 4.61038C9.22563 4.12788 10.5074 4.00163 11.7441 4.24761C12.9807 4.49359 14.1166 5.10075 15.0082 5.99231C15.8997 6.88387 16.5069 8.01979 16.7529 9.25642C16.9988 10.493 16.8726 11.7748 16.3901 12.9397C15.9076 14.1046 15.0905 15.1002 14.0421 15.8007C12.9938 16.5012 11.7612 16.8751 10.5004 16.8751C8.81014 16.8734 7.18964 16.2012 5.99447 15.006C4.7993 13.8108 4.1271 12.1903 4.12536 10.5001Z" fill="black" fill-opacity="0.4"/>
</svg>
