<svg width="24" height="24" viewBox="0 0 24 24" fill="none" xmlns="http://www.w3.org/2000/svg">
<path d="M21.7953 20.2042L17.3431 15.7501C18.678 14.0106 19.3013 11.8284 19.0864 9.64618C18.8715 7.46401 17.8347 5.44527 16.1861 3.99948C14.5376 2.55369 12.4008 1.7891 10.2092 1.86083C8.01768 1.93255 5.93546 2.83521 4.38497 4.3857C2.83448 5.9362 1.93182 8.01841 1.86009 10.21C1.78837 12.4015 2.55295 14.5383 3.99875 16.1868C5.44454 17.8354 7.46328 18.8723 9.64545 19.0871C11.8276 19.302 14.0098 18.6788 15.7494 17.3439L20.2053 21.8007C20.31 21.9054 20.4342 21.9884 20.5709 22.045C20.7077 22.1017 20.8542 22.1308 21.0022 22.1308C21.1502 22.1308 21.2967 22.1017 21.4335 22.045C21.5702 21.9884 21.6944 21.9054 21.7991 21.8007C21.9037 21.6961 21.9867 21.5719 22.0434 21.4351C22.1 21.2984 22.1291 21.1519 22.1291 21.0039C22.1291 20.8559 22.1 20.7093 22.0434 20.5726C21.9867 20.4359 21.9037 20.3116 21.7991 20.207L21.7953 20.2042ZM4.12438 10.5001C4.12438 9.23926 4.49827 8.00672 5.19876 6.95836C5.89926 5.90999 6.8949 5.09289 8.05978 4.61038C9.22466 4.12788 10.5065 4.00163 11.7431 4.24761C12.9797 4.49359 14.1156 5.10075 15.0072 5.99231C15.8987 6.88387 16.5059 8.01979 16.7519 9.25642C16.9979 10.493 16.8716 11.7748 16.3891 12.9397C15.9066 14.1046 15.0895 15.1002 14.0411 15.8007C12.9928 16.5012 11.7602 16.8751 10.4994 16.8751C8.80916 16.8734 7.18866 16.2012 5.9935 15.006C4.79833 13.8108 4.12612 12.1903 4.12438 10.5001Z" fill="black"/>
</svg>
