<svg width="16" height="16" viewBox="0 0 16 16" fill="none" xmlns="http://www.w3.org/2000/svg">
<path d="M6.53122 2.4694L11.5312 7.4694C11.6011 7.53908 11.6566 7.62187 11.6945 7.71304C11.7323 7.8042 11.7518 7.90194 11.7518 8.00065C11.7518 8.09936 11.7323 8.1971 11.6945 8.28827C11.6566 8.37943 11.6011 8.46222 11.5312 8.5319L6.53122 13.5319C6.39033 13.6728 6.19923 13.752 5.99997 13.752C5.80072 13.752 5.60962 13.6728 5.46872 13.5319C5.32783 13.391 5.24867 13.1999 5.24867 13.0007C5.24867 12.8014 5.32783 12.6103 5.46872 12.4694L9.9381 8.00003L5.4681 3.53065C5.3272 3.38976 5.24805 3.19866 5.24805 2.9994C5.24805 2.80015 5.3272 2.60905 5.4681 2.46815C5.60899 2.32726 5.80009 2.2481 5.99935 2.2481C6.19861 2.2481 6.3897 2.32726 6.5306 2.46815L6.53122 2.4694Z" fill="black" fill-opacity="0.6"/>
</svg>
