<svg width="24" height="24" viewBox="0 0 24 24" fill="none" xmlns="http://www.w3.org/2000/svg">
<path d="M14.75 11.625C14.75 12.1442 14.596 12.6517 14.3076 13.0834C14.0192 13.5151 13.6092 13.8515 13.1295 14.0502C12.6499 14.2489 12.1221 14.3008 11.6129 14.1996C11.1037 14.0983 10.636 13.8483 10.2688 13.4812C9.90173 13.114 9.65173 12.6463 9.55044 12.1371C9.44915 11.6279 9.50114 11.1001 9.69982 10.6205C9.8985 10.1408 10.235 9.73083 10.6666 9.44239C11.0983 9.15395 11.6058 9 12.125 9C12.8212 9 13.4889 9.27656 13.9812 9.76884C14.4734 10.2611 14.75 10.9288 14.75 11.625ZM4.625 9C4.10583 9 3.59831 9.15395 3.16663 9.44239C2.73495 9.73083 2.3985 10.1408 2.19982 10.6205C2.00114 11.1001 1.94915 11.6279 2.05044 12.1371C2.15173 12.6463 2.40173 13.114 2.76885 13.4812C3.13596 13.8483 3.60369 14.0983 4.11289 14.1996C4.62209 14.3008 5.14989 14.2489 5.62955 14.0502C6.1092 13.8515 6.51917 13.5151 6.80761 13.0834C7.09605 12.6517 7.25 12.1442 7.25 11.625C7.25 10.9288 6.97344 10.2611 6.48116 9.76884C5.98887 9.27656 5.32119 9 4.625 9ZM19.625 9C19.1058 9 18.5983 9.15395 18.1666 9.44239C17.735 9.73083 17.3985 10.1408 17.1998 10.6205C17.0011 11.1001 16.9492 11.6279 17.0504 12.1371C17.1517 12.6463 17.4017 13.114 17.7688 13.4812C18.136 13.8483 18.6037 14.0983 19.1129 14.1996C19.6221 14.3008 20.1499 14.2489 20.6295 14.0502C21.1092 13.8515 21.5192 13.5151 21.8076 13.0834C22.096 12.6517 22.25 12.1442 22.25 11.625C22.25 11.2803 22.1821 10.9389 22.0502 10.6205C21.9183 10.302 21.7249 10.0126 21.4812 9.76884C21.2374 9.52509 20.948 9.33173 20.6295 9.19982C20.3111 9.0679 19.9697 9 19.625 9Z" fill="black"/>
</svg>
