<svg width="91" height="38" viewBox="0 0 91 38" fill="none" xmlns="http://www.w3.org/2000/svg">
<g clip-path="url(#clip0_420_4518)">
<path d="M86.3324 36.8682L72.8501 0.0321946L72.8409 0.0078125H72.5749L69.7985 7.57747L64.7441 21.3583L64.7323 21.3473C62.9806 19.8134 60.5091 18.8546 57.3965 18.4975L56.4472 18.4002L57.389 18.2804C62.5219 17.3651 65.9723 14.1481 65.9723 10.2722C65.9723 4.95729 60.9348 1.24751 53.7189 1.24751H38.7052V1.51661H43.0678V28.9799L32.4727 0.0321043L32.4632 0.0078125H32.1971L29.4207 7.57747L18.7123 36.7734L18.6464 36.7809C18.4634 36.8033 18.2824 36.8211 18.1034 36.8346C17.834 36.8555 17.5662 36.8681 17.2976 36.8681H6.47765L27.0448 1.51652L27.1977 1.25085H2.04322V12.1867H2.31013C2.35745 6.86 5.48348 1.51652 12.3902 1.51652H20.7226L0 37.1329H27.9173V26.6557H27.6504C27.614 31.2984 24.9619 35.7081 19.1947 36.7038L19.0114 36.7349L23.4036 24.7547H35.7075L40.141 36.8682H35.7675V37.133H52.9333V36.8682H48.5411V18.5956H53.6091C58.7665 18.5956 61.7245 20.8821 61.7245 24.8668V28.1081C61.7245 28.4653 61.749 28.9874 61.776 29.4241V29.44L59.052 36.8665H55.4934V37.1313H62.8596V36.8665H59.3393L61.8199 30.1039C61.825 30.1693 61.8276 30.2087 61.8276 30.2087L61.896 30.8181L61.9619 31.2212C62.3758 33.7148 63.3369 35.5479 64.8177 36.6694L65.0305 36.8228C66.1555 37.599 67.5535 37.9921 69.1878 37.9921C71.3527 37.9921 72.7962 37.4565 73.988 36.196L73.8318 36.05C72.7337 37.0558 71.8122 37.4633 70.6576 37.4633C68.6903 37.4633 67.6608 35.0953 67.6608 32.7601V28.2187C67.6712 27.0919 67.4934 25.9712 67.1345 24.9021L67.0856 24.7613V24.7562H76.0851L80.5186 36.8698H76.1452V37.1347H91V36.8698L86.3324 36.8682ZM23.5015 24.4897L29.5627 7.96479L35.6104 24.4897H23.5015ZM48.5438 18.3298V1.51652H52.4122C57.5798 1.51652 60.308 4.56501 60.308 10.3293C60.308 16.4598 58.742 18.3298 53.6091 18.3298H48.5438ZM66.9807 24.4897L66.9545 24.4244C66.5546 23.4577 65.9723 22.5758 65.239 21.8259L64.9856 21.5744L64.9586 21.5493L69.937 7.96479L75.9846 24.4897H66.9807Z" fill="white"/>
</g>
<defs>
<clipPath id="clip0_420_4518">
<rect width="91" height="38" fill="white"/>
</clipPath>
</defs>
</svg>
