<svg width="156" height="36" viewBox="0 0 156 36" fill="none" xmlns="http://www.w3.org/2000/svg">
<g clip-path="url(#clip0_420_4520)">
<path d="M141.312 11.2935L141.021 11.3857C139.887 9.04217 138.268 7.17663 136.162 5.78905C134.089 4.40145 131.482 3.70765 128.34 3.70765C126.591 3.70765 124.923 4.06224 123.336 4.77142C121.749 5.44984 120.356 6.42116 119.158 7.68537C117.992 8.91877 117.053 10.4143 116.34 12.1719C115.627 13.9295 115.271 15.8722 115.271 17.9998C115.271 20.1274 115.627 22.07 116.34 23.8276C117.053 25.5852 117.992 27.0962 119.158 28.3604C120.356 29.5938 121.749 30.5497 123.336 31.2281C124.923 31.9065 126.591 32.2456 128.34 32.2456C131.45 32.2456 133.976 31.7831 135.919 30.858C137.895 29.9022 139.563 28.4529 140.924 26.5103L141.215 26.6025L141.118 29.5627C140.373 30.3028 139.515 30.9657 138.543 31.5516C137.572 32.1066 136.519 32.5845 135.385 32.9854C134.284 33.3554 133.134 33.633 131.936 33.818C130.737 34.034 129.539 34.142 128.341 34.142C125.847 34.142 123.466 33.7566 121.199 32.9857C118.932 32.2148 116.94 31.1355 115.223 29.7479C113.506 28.3296 112.146 26.6336 111.142 24.6602C110.138 22.6559 109.636 20.4357 109.636 17.9997C109.636 15.5637 110.138 13.359 111.142 11.3856C112.146 9.38128 113.506 7.66993 115.223 6.25154C116.94 4.8331 118.932 3.75386 121.199 3.01382C123.466 2.24291 125.847 1.85746 128.341 1.85746C129.539 1.85746 130.737 1.94997 131.936 2.13498C133.134 2.31999 134.284 2.61293 135.385 3.01382C136.519 3.38384 137.572 3.86179 138.543 4.44769C139.515 5.00272 140.373 5.65025 141.118 6.3903L141.312 11.2935ZM34.252 20.1278C33.8959 20.2818 33.5558 20.4823 33.2317 20.7294C32.9077 20.9759 32.7456 21.3151 32.7456 21.747V27.4361C31.1909 29.5637 29.199 31.2134 26.7698 32.3851C24.3406 33.5569 21.6523 34.1428 18.7048 34.1428C16.2108 34.1428 13.8302 33.7573 11.563 32.9864C9.29573 32.2155 7.30378 31.1363 5.58713 29.7487C3.87051 28.3303 2.51014 26.6344 1.50605 24.661C0.502017 22.6567 0 20.4365 0 18.0005C0 15.5645 0.502017 13.3598 1.50605 11.3864C2.51014 9.38204 3.87051 7.67068 5.58713 6.2523C7.30378 4.83386 9.29573 3.75463 11.563 3.01461C13.8302 2.24369 16.2108 1.85822 18.7048 1.85822C19.9032 1.85822 21.1016 1.95073 22.3001 2.13574C23.4984 2.32075 24.6483 2.61369 25.7495 3.01458C26.8831 3.3846 27.9358 3.86255 28.9075 4.44845C29.8791 5.00348 30.7375 5.65101 31.4825 6.39105L31.6771 11.2938L31.3856 11.386C30.252 9.0425 28.6325 7.17695 26.5272 5.78937C24.4543 4.40177 21.8469 3.70797 18.7052 3.70797C16.9561 3.70797 15.2881 4.06257 13.7011 4.77177C12.114 5.45017 10.7212 6.42148 9.52279 7.68569C8.35675 8.91912 7.41748 10.4146 6.70498 12.1723C5.99236 13.9299 5.63605 15.8725 5.63605 18.0001C5.63605 20.0969 5.97615 22.0241 6.65635 23.7817C7.36894 25.5393 8.30824 27.0503 9.47425 28.3145C10.6726 29.5479 12.0654 30.5192 13.6524 31.2285C15.2395 31.9068 16.9238 32.246 18.7052 32.246C22.0737 32.246 24.9563 31.6293 27.3531 30.3959V21.7466C27.3531 21.3151 27.1751 20.9759 26.819 20.729C26.4949 20.4825 26.171 20.282 25.8473 20.1274L25.8917 19.8965C26.0534 19.9247 26.345 19.9554 26.7662 19.9886C27.1875 20.0168 27.6248 20.0476 28.078 20.0808H32.2565C32.6451 20.0526 33.0176 20.0219 33.3739 19.9886C33.73 19.9604 34.0052 19.9297 34.1996 19.8965L34.252 20.1278ZM69.442 2.82921C69.1179 2.98319 68.794 3.18372 68.4703 3.43077C68.1462 3.67726 67.9682 4.13979 67.9362 4.81835C67.9066 5.55839 67.8743 6.49887 67.8393 7.63979C67.8393 8.74988 67.8245 10.0141 67.7949 11.4325C67.7949 12.8509 67.7801 14.3927 67.7505 16.0578V21.2382C67.7208 23.2424 67.4616 24.9538 66.9728 26.3723C66.487 27.7906 65.8392 28.9778 65.0295 29.9337C64.2522 30.8896 63.3777 31.6451 62.406 32.2001C61.4666 32.7551 60.5273 33.1714 59.5881 33.4489C58.6811 33.7574 57.8228 33.9425 57.0132 34.0039C56.2034 34.0964 55.5718 34.1427 55.1184 34.1427C53.2722 34.1427 51.4907 33.9114 49.7741 33.4489C48.0574 33.0174 46.5513 32.3082 45.2558 31.3212C43.9602 30.3345 42.9238 29.0549 42.1465 27.4823C41.3691 25.9097 40.9804 23.9979 40.9804 21.7469V16.5204V11.71C40.9804 10.2299 40.9656 8.90397 40.936 7.73226C40.936 6.52967 40.9212 5.55835 40.8915 4.81831C40.8619 4.13991 40.6839 3.67738 40.3574 3.43073C40.0333 3.18423 39.7094 2.98371 39.3857 2.82917L39.4302 2.59818C39.5919 2.62638 39.8512 2.65711 40.2078 2.69037C40.5965 2.71857 40.9852 2.7493 41.3739 2.78255C41.7951 2.78255 42.2 2.79665 42.5885 2.82486H44.3375C44.7262 2.79665 45.131 2.78255 45.5521 2.78255C45.9733 2.75435 46.362 2.72362 46.7181 2.69037C47.1067 2.66217 47.3819 2.63144 47.5437 2.59818L47.5881 2.82917C47.232 2.98315 46.892 3.18368 46.5679 3.43073C46.2764 3.67722 46.1143 4.13975 46.0817 4.81831C46.0521 5.55835 46.0198 6.52967 45.9849 7.73226V21.7469C45.9849 25.1079 46.8108 27.5902 48.4626 29.1936C50.1145 30.797 52.5599 31.5987 55.7989 31.5987C56.7381 31.5987 57.807 31.4907 59.0054 31.2747C60.2039 31.0282 61.3213 30.5348 62.3577 29.7946C63.4266 29.0545 64.3173 28.0062 65.0299 26.6495C65.7748 25.2927 66.1473 23.4888 66.1473 21.2379C66.1473 18.8019 66.1325 16.7205 66.1028 14.9937C66.1028 13.2361 66.088 11.7406 66.0584 10.5072C66.0584 9.24294 66.0436 8.1637 66.014 7.26945C65.9844 6.37526 65.9521 5.55814 65.9171 4.81807C65.8874 4.13967 65.7094 3.67714 65.3829 3.43049C65.0588 3.18399 64.735 2.98346 64.4113 2.82889L64.4557 2.59794C64.8118 2.6594 65.2167 2.72116 65.6703 2.78323C66.1235 2.81143 66.5446 2.82553 66.9335 2.82553C67.2896 2.82553 67.6944 2.81143 68.1481 2.78323C68.6339 2.72177 69.055 2.66001 69.4113 2.59794L69.442 2.82921ZM104.696 11.2935L104.405 11.3857C103.271 9.04217 101.652 7.17663 99.5462 5.78905C97.4733 4.40145 94.8659 3.70765 91.7242 3.70765C89.9752 3.70765 88.3071 4.06224 86.72 4.77142C85.1329 5.44984 83.7402 6.42116 82.5418 7.68537C81.3758 8.91877 80.4365 10.4143 79.7239 12.1719C79.0114 13.9296 78.6551 15.8722 78.6551 17.9998C78.6551 20.1274 79.0114 22.07 79.7239 23.8276C80.4366 25.5852 81.3759 27.0962 82.5418 28.3604C83.7402 29.5938 85.1329 30.5497 86.72 31.2281C88.3071 31.9065 89.9752 32.2456 91.7242 32.2456C94.8336 32.2456 97.36 31.7831 99.3034 30.858C101.279 29.9022 102.947 28.4529 104.307 26.5103L104.599 26.6025L104.502 29.5627C103.757 30.3027 102.899 30.9657 101.927 31.5515C100.955 32.1065 99.9028 32.5845 98.7691 32.9854C97.6679 33.3554 96.5181 33.6329 95.3196 33.8179C94.1212 34.034 92.9228 34.142 91.7245 34.142C89.2304 34.142 86.8498 33.7565 84.5826 32.9856C82.3153 32.2147 80.3234 31.1355 78.6068 29.7479C76.8901 28.3295 75.5297 26.6336 74.5257 24.6601C73.5216 22.6558 73.0196 20.4357 73.0196 17.9997C73.0196 15.5637 73.5216 13.359 74.5257 11.3856C75.5297 9.38125 76.8901 7.66989 78.6068 6.2515C80.3234 4.83306 82.3153 3.75382 84.5826 3.01378C86.8499 2.24287 89.2305 1.85742 91.7245 1.85742C92.9228 1.85742 94.1212 1.94993 95.3197 2.13494C96.5181 2.31995 97.6679 2.61289 98.7691 3.01378C99.9028 3.3838 100.955 3.86175 101.927 4.44765C102.899 5.00268 103.757 5.65021 104.502 6.39026L104.696 11.2935ZM155.956 33.3561C155.794 33.3279 155.519 33.2972 155.13 33.2639C154.774 33.2639 154.385 33.2498 153.964 33.2216C153.543 33.2216 153.138 33.2075 152.749 33.1793H149.835C149.446 33.2075 149.057 33.2382 148.668 33.2715C148.312 33.2997 148.037 33.3304 147.843 33.3637L147.798 33.1783C148.122 33.0243 148.446 32.8238 148.77 32.5768C149.094 32.3303 149.272 31.8677 149.304 31.1892C149.334 30.4492 149.349 29.6783 149.349 28.8766C149.378 28.0748 149.393 27.1652 149.393 26.1476V22.6786V18.0071V13.3356V9.82037C149.393 8.80282 149.378 7.90858 149.349 7.13768C149.349 6.33597 149.334 5.56509 149.304 4.82505C149.275 4.14665 149.097 3.68413 148.77 3.43747C148.446 3.15996 148.122 2.94419 147.798 2.79018L147.843 2.60493C148.037 2.66638 148.312 2.71264 148.668 2.74368C149.057 2.74368 149.446 2.75778 149.835 2.78599C150.256 2.81419 150.661 2.82829 151.049 2.82829H152.749C153.138 2.80009 153.543 2.78599 153.964 2.78599C154.385 2.75778 154.774 2.72706 155.13 2.6938C155.519 2.6656 155.794 2.63487 155.956 2.60161L156 2.78694C155.644 2.94093 155.304 3.15669 154.98 3.4342C154.688 3.6807 154.526 4.14322 154.494 4.82178C154.464 5.56182 154.432 6.3327 154.397 7.13441V28.8733C154.426 29.675 154.459 30.4459 154.494 31.1859C154.523 31.8643 154.685 32.3268 154.98 32.5735C155.304 32.82 155.644 33.0205 156 33.1751L155.956 33.3561Z" fill="white"/>
</g>
<defs>
<clipPath id="clip0_420_4520">
<rect width="156" height="36" fill="white"/>
</clipPath>
</defs>
</svg>
