<svg width="194" height="32" viewBox="0 0 194 32" fill="none" xmlns="http://www.w3.org/2000/svg">
<g clip-path="url(#clip0_420_4522)">
<path fill-rule="evenodd" clip-rule="evenodd" d="M0 0.901628L2.93217 4.20836V28.4105L0.758974 31.5772L14.0684 31.5977L11.6695 28.6837L11.4204 19.9677L24.2536 20.0374C28.1434 18.7424 32.1421 15.9813 32.3342 10.3995C32.2728 4.9902 28.9703 1.52074 25.136 0.830483L0 0.901628ZM10.9449 2.44941V17.9976L20.7911 18.0688C23.0315 16.2621 24.7298 14.8786 24.6619 10.541C24.6298 7.0042 23.8832 3.91999 20.5873 2.45017L10.9449 2.44941ZM38.4936 0.72528L41.4258 4.03276V28.2349L39.2526 31.4032L52.5613 31.4221L50.1624 28.5082L49.9133 19.7921H49.9666L63.7165 31.5205L75.1275 31.4274L64.7129 22.4192H56.0187L52.9543 19.8088L62.7465 19.8618C66.6363 18.5668 70.6342 15.8057 70.8271 10.2239C70.7665 4.81536 67.4639 1.34515 63.6289 0.655648L38.4936 0.72528ZM49.4378 2.27306V17.8213L59.284 17.8924C61.5251 16.0858 63.2227 14.7022 63.1548 10.3639C63.1227 6.82785 62.3761 3.74289 59.0802 2.27306H49.4378ZM86.1132 0.690464H97.5891L112.528 28.4105C113.174 30.5509 115.108 30.2868 116.398 31.2253H101.935L104.108 30.5456L103.972 28.4817L100.237 22.5009L87.5391 22.5721L84.8232 28.3416C84.7326 28.9978 84.0306 29.4959 84.5514 30.311L85.5705 31.2957L79.3234 31.1549L82.04 30.311L92.2924 8.71168V7.23353L87.9606 1.45489L86.1132 0.690464ZM88.3419 20.5974L93.616 10.6122L99.1071 20.5414L88.3419 20.5974ZM163.715 0.751013H175.19L190.129 28.4711C190.776 30.6115 192.709 30.3473 194 31.2858H179.536L181.709 30.6047L181.573 28.5407L177.839 22.5615L165.141 22.6326L162.425 28.4007C162.333 29.0584 161.632 29.5564 162.152 30.3715L163.171 31.3562L156.925 31.2155L159.642 30.3715L169.894 8.77223V7.29333L165.562 1.51544L163.715 0.751013ZM165.944 20.6587L171.218 10.6735L176.709 20.6012L165.944 20.6587ZM120.367 0.4021L140.81 0.514872C147.394 2.0566 151.582 6.07856 152.881 13.0947L152.826 18.5668C151.626 24.8185 147.693 29.1318 140.756 31.3154L120.258 31.3729L120.255 30.7106C123.372 30.4752 123.621 30.1195 123.629 28.2697V3.33494C123.594 1.96729 123.32 1.11582 120.312 1.02197L120.367 0.4021ZM131.988 2.53569L131.968 29.5133C134.664 29.5224 137.003 29.7751 138.325 29.1008C141.319 27.7331 142.71 25.6328 142.837 23.6597L142.765 7.73003C142.766 5.18168 140 3.38262 138.404 2.91412C137.262 2.49104 134.983 2.47363 131.988 2.53569Z" fill="white" stroke="white" stroke-width="1.02419" stroke-miterlimit="2.613"/>
</g>
<defs>
<clipPath id="clip0_420_4522">
<rect width="194" height="32" fill="white"/>
</clipPath>
</defs>
</svg>
