<svg width="16" height="16" viewBox="0 0 16 16" fill="none" xmlns="http://www.w3.org/2000/svg">
<path d="M2.4694 9.46927L7.4694 4.46927C7.53908 4.39935 7.62188 4.34387 7.71304 4.30602C7.8042 4.26816 7.90194 4.24867 8.00065 4.24867C8.09936 4.24867 8.1971 4.26816 8.28827 4.30602C8.37943 4.34387 8.46223 4.39935 8.5319 4.46927L13.5319 9.46927C13.6728 9.61016 13.752 9.80126 13.752 10.0005C13.752 10.1998 13.6728 10.3909 13.5319 10.5318C13.391 10.6727 13.1999 10.7518 13.0007 10.7518C12.8014 10.7518 12.6103 10.6727 12.4694 10.5318L8.00003 6.06239L3.53065 10.5324C3.38976 10.6733 3.19866 10.7524 2.9994 10.7524C2.80015 10.7524 2.60905 10.6733 2.46815 10.5324C2.32726 10.3915 2.2481 10.2004 2.2481 10.0011C2.2481 9.80188 2.32726 9.61079 2.46815 9.46989L2.4694 9.46927Z" fill="black"/>
</svg>
